<?xml version="1.0" encoding="UTF-8" standalone="no"?>
<!DOCTYPE svg PUBLIC "-//W3C//DTD SVG 1.1//EN"
 "http://www.w3.org/Graphics/SVG/1.1/DTD/svg11.dtd">
<!-- Generated by graphviz version 2.47.2 (20210527.0053)
 -->
<!-- Pages: 1 -->
<svg width="1156pt" height="692pt"
 viewBox="0.00 0.00 1156.19 692.00" xmlns="http://www.w3.org/2000/svg" xmlns:xlink="http://www.w3.org/1999/xlink">
<g id="graph0" class="graph" transform="scale(1 1) rotate(0) translate(4 688)">
<polygon fill="white" stroke="transparent" points="-4,4 -4,-688 1152.19,-688 1152.19,4 -4,4"/>
<!-- 0 -->
<g id="node1" class="node">
<title>0</title>
<polygon fill="none" stroke="black" points="512.9,-468 458.9,-468 458.9,-432 512.9,-432 512.9,-468"/>
<text text-anchor="middle" x="485.9" y="-446.3" font-family="Times,serif" font-size="14.00">lexer</text>
</g>
<!-- 4 -->
<g id="node5" class="node">
<title>4</title>
<ellipse fill="none" stroke="black" cx="430.9" cy="-378" rx="29.8" ry="18"/>
<text text-anchor="middle" x="430.9" y="-374.3" font-family="Times,serif" font-size="14.00">logos</text>
</g>
<!-- 0&#45;&gt;4 -->
<g id="edge1" class="edge">
<title>0&#45;&gt;4</title>
<path fill="none" stroke="black" d="M472.3,-431.7C465.41,-422.93 456.94,-412.15 449.46,-402.63"/>
<polygon fill="black" stroke="black" points="452.14,-400.37 443.21,-394.67 446.63,-404.7 452.14,-400.37"/>
</g>
<!-- 1 -->
<g id="node2" class="node">
<title>1</title>
<polygon fill="none" stroke="black" points="704.9,-684 650.9,-684 650.9,-648 704.9,-648 704.9,-684"/>
<text text-anchor="middle" x="677.9" y="-662.3" font-family="Times,serif" font-size="14.00">nakala</text>
</g>
<!-- 2 -->
<g id="node3" class="node">
<title>2</title>
<polygon fill="none" stroke="black" points="704.9,-612 650.9,-612 650.9,-576 704.9,-576 704.9,-612"/>
<text text-anchor="middle" x="677.9" y="-590.3" font-family="Times,serif" font-size="14.00">parser</text>
</g>
<!-- 1&#45;&gt;2 -->
<g id="edge2" class="edge">
<title>1&#45;&gt;2</title>
<path fill="none" stroke="black" d="M677.9,-647.7C677.9,-639.98 677.9,-630.71 677.9,-622.11"/>
<polygon fill="black" stroke="black" points="681.4,-622.1 677.9,-612.1 674.4,-622.1 681.4,-622.1"/>
</g>
<!-- 2&#45;&gt;0 -->
<g id="edge5" class="edge">
<title>2&#45;&gt;0</title>
<path fill="none" stroke="black" d="M650.56,-580.62C630.25,-570.86 602.3,-556.23 579.9,-540 553.34,-520.76 526.52,-494.55 508.37,-475.55"/>
<polygon fill="black" stroke="black" points="510.79,-473.02 501.38,-468.15 505.7,-477.82 510.79,-473.02"/>
</g>
<!-- 3 -->
<g id="node4" class="node">
<title>3</title>
<polygon fill="none" stroke="black" points="642.9,-540 588.9,-540 588.9,-504 642.9,-504 642.9,-540"/>
<text text-anchor="middle" x="615.9" y="-518.3" font-family="Times,serif" font-size="14.00">syntax</text>
</g>
<!-- 2&#45;&gt;3 -->
<g id="edge7" class="edge">
<title>2&#45;&gt;3</title>
<path fill="none" stroke="black" d="M662.57,-575.7C655.14,-567.3 646.07,-557.07 637.92,-547.86"/>
<polygon fill="black" stroke="black" points="640.3,-545.27 631.04,-540.1 635.05,-549.91 640.3,-545.27"/>
</g>
<!-- 5 -->
<g id="node6" class="node">
<title>5</title>
<ellipse fill="none" stroke="black" cx="757.9" cy="-522" rx="51.99" ry="18"/>
<text text-anchor="middle" x="757.9" y="-518.3" font-family="Times,serif" font-size="14.00">drop_bomb</text>
</g>
<!-- 2&#45;&gt;5 -->
<g id="edge3" class="edge">
<title>2&#45;&gt;5</title>
<path fill="none" stroke="black" d="M697.67,-575.7C708.02,-566.64 720.82,-555.44 731.96,-545.69"/>
<polygon fill="black" stroke="black" points="734.49,-548.13 739.72,-538.91 729.88,-542.86 734.49,-548.13"/>
</g>
<!-- 6 -->
<g id="node7" class="node">
<title>6</title>
<ellipse fill="none" stroke="blue" cx="880.9" cy="-522" rx="48.99" ry="18"/>
<text text-anchor="middle" x="880.9" y="-518.3" font-family="Times,serif" font-size="14.00">expect&#45;test</text>
</g>
<!-- 2&#45;&gt;6 -->
<g id="edge4" class="edge">
<title>2&#45;&gt;6</title>
<path fill="none" stroke="blue" d="M705.27,-583.56C739.07,-571.91 796.96,-551.94 836.99,-538.14"/>
<polygon fill="blue" stroke="blue" points="838.19,-541.43 846.51,-534.86 835.91,-534.81 838.19,-541.43"/>
</g>
<!-- 7 -->
<g id="node8" class="node">
<title>7</title>
<ellipse fill="none" stroke="black" cx="783.9" cy="-450" rx="32.49" ry="18"/>
<text text-anchor="middle" x="783.9" y="-446.3" font-family="Times,serif" font-size="14.00">rowan</text>
</g>
<!-- 2&#45;&gt;7 -->
<g id="edge6" class="edge">
<title>2&#45;&gt;7</title>
<path fill="none" stroke="black" d="M677.66,-575.67C678.24,-556.46 681.72,-525.39 696.9,-504 709.53,-486.19 730.22,-473.23 748.25,-464.58"/>
<polygon fill="black" stroke="black" points="749.71,-467.76 757.38,-460.45 746.82,-461.39 749.71,-467.76"/>
</g>
<!-- 3&#45;&gt;0 -->
<g id="edge8" class="edge">
<title>3&#45;&gt;0</title>
<path fill="none" stroke="black" d="M588.64,-506.33C569.32,-495.92 543.17,-481.84 522.1,-470.49"/>
<polygon fill="black" stroke="black" points="523.58,-467.31 513.11,-465.65 520.26,-473.48 523.58,-467.31"/>
</g>
<!-- 3&#45;&gt;7 -->
<g id="edge11" class="edge">
<title>3&#45;&gt;7</title>
<path fill="none" stroke="black" d="M643.26,-509.6C672.25,-497.52 718.07,-478.43 749.49,-465.34"/>
<polygon fill="black" stroke="black" points="750.85,-468.56 758.74,-461.48 748.16,-462.1 750.85,-468.56"/>
</g>
<!-- 8 -->
<g id="node9" class="node">
<title>8</title>
<ellipse fill="none" stroke="#00cd00" cx="523.9" cy="-306" rx="51.99" ry="18"/>
<text text-anchor="middle" x="523.9" y="-302.3" font-family="Times,serif" font-size="14.00">num&#45;derive</text>
</g>
<!-- 3&#45;&gt;8 -->
<g id="edge9" class="edge">
<title>3&#45;&gt;8</title>
<path fill="none" stroke="#00cd00" d="M591.99,-503.85C580.63,-494.49 567.83,-481.97 559.9,-468 535.75,-425.48 527.8,-368.08 525.18,-334.55"/>
<polygon fill="#00cd00" stroke="#00cd00" points="528.64,-333.89 524.48,-324.15 521.66,-334.36 528.64,-333.89"/>
</g>
<!-- 9 -->
<g id="node10" class="node">
<title>9</title>
<ellipse fill="none" stroke="black" cx="615.9" cy="-450" rx="47.39" ry="18"/>
<text text-anchor="middle" x="615.9" y="-446.3" font-family="Times,serif" font-size="14.00">num&#45;traits</text>
</g>
<!-- 3&#45;&gt;9 -->
<g id="edge10" class="edge">
<title>3&#45;&gt;9</title>
<path fill="none" stroke="black" d="M615.9,-503.7C615.9,-495.98 615.9,-486.71 615.9,-478.11"/>
<polygon fill="black" stroke="black" points="619.4,-478.1 615.9,-468.1 612.4,-478.1 619.4,-478.1"/>
</g>
<!-- 10 -->
<g id="node11" class="node">
<title>10</title>
<ellipse fill="none" stroke="#00cd00" stroke-dasharray="5,2" cx="366.9" cy="-306" rx="54.69" ry="18"/>
<text text-anchor="middle" x="366.9" y="-302.3" font-family="Times,serif" font-size="14.00">logos&#45;derive</text>
</g>
<!-- 4&#45;&gt;10 -->
<g id="edge12" class="edge">
<title>4&#45;&gt;10</title>
<path fill="none" stroke="#00cd00" stroke-dasharray="1,5" d="M417.01,-361.81C408.81,-352.84 398.23,-341.28 388.92,-331.09"/>
<polygon fill="#00cd00" stroke="#00cd00" points="391.43,-328.65 382.1,-323.63 386.26,-333.37 391.43,-328.65"/>
</g>
<!-- 11 -->
<g id="node12" class="node">
<title>11</title>
<ellipse fill="none" stroke="blue" cx="880.9" cy="-450" rx="46.29" ry="18"/>
<text text-anchor="middle" x="880.9" y="-446.3" font-family="Times,serif" font-size="14.00">dissimilar</text>
</g>
<!-- 6&#45;&gt;11 -->
<g id="edge13" class="edge">
<title>6&#45;&gt;11</title>
<path fill="none" stroke="blue" d="M880.9,-503.7C880.9,-495.98 880.9,-486.71 880.9,-478.11"/>
<polygon fill="blue" stroke="blue" points="884.4,-478.1 880.9,-468.1 877.4,-478.1 884.4,-478.1"/>
</g>
<!-- 12 -->
<g id="node13" class="node">
<title>12</title>
<ellipse fill="none" stroke="blue" cx="988.9" cy="-450" rx="44.39" ry="18"/>
<text text-anchor="middle" x="988.9" y="-446.3" font-family="Times,serif" font-size="14.00">once_cell</text>
</g>
<!-- 6&#45;&gt;12 -->
<g id="edge14" class="edge">
<title>6&#45;&gt;12</title>
<path fill="none" stroke="blue" d="M904.06,-505.98C919.69,-495.86 940.49,-482.38 957.58,-471.3"/>
<polygon fill="blue" stroke="blue" points="959.65,-474.13 966.14,-465.75 955.84,-468.25 959.65,-474.13"/>
</g>
<!-- 13 -->
<g id="node14" class="node">
<title>13</title>
<ellipse fill="none" stroke="black" cx="787.9" cy="-378" rx="49.29" ry="18"/>
<text text-anchor="middle" x="787.9" y="-374.3" font-family="Times,serif" font-size="14.00">hashbrown</text>
</g>
<!-- 7&#45;&gt;13 -->
<g id="edge15" class="edge">
<title>7&#45;&gt;13</title>
<path fill="none" stroke="black" d="M784.88,-431.7C785.32,-423.98 785.85,-414.71 786.35,-406.11"/>
<polygon fill="black" stroke="black" points="789.84,-406.29 786.92,-396.1 782.85,-405.89 789.84,-406.29"/>
</g>
<!-- 14 -->
<g id="node15" class="node">
<title>14</title>
<ellipse fill="none" stroke="black" cx="901.9" cy="-378" rx="46.59" ry="18"/>
<text text-anchor="middle" x="901.9" y="-374.3" font-family="Times,serif" font-size="14.00">rustc&#45;hash</text>
</g>
<!-- 7&#45;&gt;14 -->
<g id="edge16" class="edge">
<title>7&#45;&gt;14</title>
<path fill="none" stroke="black" d="M805.26,-436.32C822.97,-425.82 848.43,-410.72 868.77,-398.65"/>
<polygon fill="black" stroke="black" points="870.61,-401.63 877.42,-393.52 867.04,-395.61 870.61,-401.63"/>
</g>
<!-- 15 -->
<g id="node16" class="node">
<title>15</title>
<ellipse fill="none" stroke="black" cx="1007.9" cy="-378" rx="41.69" ry="18"/>
<text text-anchor="middle" x="1007.9" y="-374.3" font-family="Times,serif" font-size="14.00">smol_str</text>
</g>
<!-- 7&#45;&gt;15 -->
<g id="edge17" class="edge">
<title>7&#45;&gt;15</title>
<path fill="none" stroke="black" d="M809.03,-438.26C814.54,-436.07 820.38,-433.86 825.9,-432 883.51,-412.56 899.75,-413.8 957.9,-396 960.83,-395.1 963.84,-394.15 966.87,-393.17"/>
<polygon fill="black" stroke="black" points="968.11,-396.45 976.52,-390 965.92,-389.8 968.11,-396.45"/>
</g>
<!-- 16 -->
<g id="node17" class="node">
<title>16</title>
<ellipse fill="none" stroke="black" cx="1107.9" cy="-378" rx="40.09" ry="18"/>
<text text-anchor="middle" x="1107.9" y="-374.3" font-family="Times,serif" font-size="14.00">text&#45;size</text>
</g>
<!-- 7&#45;&gt;16 -->
<g id="edge18" class="edge">
<title>7&#45;&gt;16</title>
<path fill="none" stroke="black" d="M808.44,-437.96C814.09,-435.73 820.13,-433.59 825.9,-432 926.91,-404.16 957.2,-421.28 1058.9,-396 1062.04,-395.22 1065.27,-394.32 1068.5,-393.35"/>
<polygon fill="black" stroke="black" points="1069.63,-396.67 1078.09,-390.3 1067.5,-390 1069.63,-396.67"/>
</g>
<!-- 17 -->
<g id="node18" class="node">
<title>17</title>
<ellipse fill="none" stroke="black" cx="677.9" cy="-378" rx="42.79" ry="18"/>
<text text-anchor="middle" x="677.9" y="-374.3" font-family="Times,serif" font-size="14.00">triomphe</text>
</g>
<!-- 7&#45;&gt;17 -->
<g id="edge19" class="edge">
<title>7&#45;&gt;17</title>
<path fill="none" stroke="black" d="M763.46,-435.5C747.99,-425.29 726.47,-411.08 708.88,-399.46"/>
<polygon fill="black" stroke="black" points="710.37,-396.25 700.1,-393.66 706.52,-402.09 710.37,-396.25"/>
</g>
<!-- 18 -->
<g id="node19" class="node">
<title>18</title>
<ellipse fill="none" stroke="#00cd00" cx="504.9" cy="-90" rx="55.79" ry="18"/>
<text text-anchor="middle" x="504.9" y="-86.3" font-family="Times,serif" font-size="14.00">proc&#45;macro2</text>
</g>
<!-- 8&#45;&gt;18 -->
<g id="edge20" class="edge">
<title>8&#45;&gt;18</title>
<path fill="none" stroke="#00cd00" d="M533.91,-287.94C550.18,-257.87 578.56,-193.88 557.9,-144 553.03,-132.26 544.17,-121.76 535.06,-113.27"/>
<polygon fill="#00cd00" stroke="#00cd00" points="537.27,-110.56 527.44,-106.63 532.67,-115.84 537.27,-110.56"/>
</g>
<!-- 19 -->
<g id="node20" class="node">
<title>19</title>
<ellipse fill="none" stroke="#00cd00" cx="517.9" cy="-162" rx="30.59" ry="18"/>
<text text-anchor="middle" x="517.9" y="-158.3" font-family="Times,serif" font-size="14.00">quote</text>
</g>
<!-- 8&#45;&gt;19 -->
<g id="edge21" class="edge">
<title>8&#45;&gt;19</title>
<path fill="none" stroke="#00cd00" d="M526.06,-287.9C528.01,-269.96 530.23,-240.95 527.9,-216 527.1,-207.48 525.6,-198.28 523.99,-189.99"/>
<polygon fill="#00cd00" stroke="#00cd00" points="527.4,-189.16 521.95,-180.07 520.54,-190.57 527.4,-189.16"/>
</g>
<!-- 20 -->
<g id="node21" class="node">
<title>20</title>
<ellipse fill="none" stroke="#00cd00" cx="458.9" cy="-234" rx="27" ry="18"/>
<text text-anchor="middle" x="458.9" y="-230.3" font-family="Times,serif" font-size="14.00">syn</text>
</g>
<!-- 8&#45;&gt;20 -->
<g id="edge22" class="edge">
<title>8&#45;&gt;20</title>
<path fill="none" stroke="#00cd00" d="M508.82,-288.76C500.09,-279.37 488.99,-267.41 479.47,-257.15"/>
<polygon fill="#00cd00" stroke="#00cd00" points="481.93,-254.66 472.56,-249.72 476.8,-259.43 481.93,-254.66"/>
</g>
<!-- 21 -->
<g id="node22" class="node">
<title>21</title>
<ellipse fill="none" stroke="#00cd00" cx="661.9" cy="-234" rx="37.09" ry="18"/>
<text text-anchor="middle" x="661.9" y="-230.3" font-family="Times,serif" font-size="14.00">autocfg</text>
</g>
<!-- 9&#45;&gt;21 -->
<g id="edge23" class="edge">
<title>9&#45;&gt;21</title>
<path fill="none" stroke="#00cd00" d="M613.47,-431.94C609.88,-401.86 605.31,-337.87 622.9,-288 626.64,-277.39 633.27,-267.09 640.02,-258.44"/>
<polygon fill="#00cd00" stroke="#00cd00" points="642.76,-260.63 646.44,-250.7 637.37,-256.17 642.76,-260.63"/>
</g>
<!-- 10&#45;&gt;18 -->
<g id="edge26" class="edge">
<title>10&#45;&gt;18</title>
<path fill="none" stroke="#00cd00" stroke-dasharray="5,2" d="M329.51,-292.62C310.76,-284.29 289.78,-271.25 278.9,-252 271.02,-238.07 270.77,-229.78 278.9,-216 315.77,-153.46 396.41,-120.03 450.7,-103.9"/>
<polygon fill="#00cd00" stroke="#00cd00" points="451.87,-107.21 460.52,-101.09 449.94,-100.48 451.87,-107.21"/>
</g>
<!-- 10&#45;&gt;19 -->
<g id="edge27" class="edge">
<title>10&#45;&gt;19</title>
<path fill="none" stroke="#00cd00" stroke-dasharray="5,2" d="M413.55,-296.52C440.94,-289.2 474.15,-275.87 494.9,-252 509.74,-234.93 515.19,-209.47 517.11,-190.16"/>
<polygon fill="#00cd00" stroke="#00cd00" points="520.6,-190.38 517.85,-180.15 513.62,-189.86 520.6,-190.38"/>
</g>
<!-- 10&#45;&gt;20 -->
<g id="edge29" class="edge">
<title>10&#45;&gt;20</title>
<path fill="none" stroke="#00cd00" stroke-dasharray="5,2" d="M387.77,-289.12C401.42,-278.73 419.33,-265.11 433.76,-254.12"/>
<polygon fill="#00cd00" stroke="#00cd00" points="435.96,-256.85 441.8,-248.01 431.72,-251.28 435.96,-256.85"/>
</g>
<!-- 22 -->
<g id="node23" class="node">
<title>22</title>
<ellipse fill="none" stroke="#00cd00" stroke-dasharray="5,2" cx="314.9" cy="-234" rx="27" ry="18"/>
<text text-anchor="middle" x="314.9" y="-230.3" font-family="Times,serif" font-size="14.00">beef</text>
</g>
<!-- 10&#45;&gt;22 -->
<g id="edge24" class="edge">
<title>10&#45;&gt;22</title>
<path fill="none" stroke="#00cd00" stroke-dasharray="5,2" d="M354.57,-288.41C347.97,-279.53 339.74,-268.44 332.48,-258.67"/>
<polygon fill="#00cd00" stroke="#00cd00" points="335.19,-256.45 326.42,-250.51 329.57,-260.63 335.19,-256.45"/>
</g>
<!-- 23 -->
<g id="node24" class="node">
<title>23</title>
<ellipse fill="none" stroke="#00cd00" stroke-dasharray="5,2" cx="386.9" cy="-234" rx="27" ry="18"/>
<text text-anchor="middle" x="386.9" y="-230.3" font-family="Times,serif" font-size="14.00">fnv</text>
</g>
<!-- 10&#45;&gt;23 -->
<g id="edge25" class="edge">
<title>10&#45;&gt;23</title>
<path fill="none" stroke="#00cd00" stroke-dasharray="5,2" d="M371.74,-288.05C374,-280.14 376.74,-270.54 379.27,-261.69"/>
<polygon fill="#00cd00" stroke="#00cd00" points="382.72,-262.37 382.1,-251.79 375.99,-260.44 382.72,-262.37"/>
</g>
<!-- 24 -->
<g id="node25" class="node">
<title>24</title>
<ellipse fill="none" stroke="#00cd00" stroke-dasharray="5,2" cx="55.9" cy="-234" rx="55.79" ry="18"/>
<text text-anchor="middle" x="55.9" y="-230.3" font-family="Times,serif" font-size="14.00">regex&#45;syntax</text>
</g>
<!-- 10&#45;&gt;24 -->
<g id="edge28" class="edge">
<title>10&#45;&gt;24</title>
<path fill="none" stroke="#00cd00" stroke-dasharray="5,2" d="M321.42,-295.82C271.95,-285.69 190.59,-268.61 120.9,-252 116.5,-250.95 111.95,-249.83 107.38,-248.69"/>
<polygon fill="#00cd00" stroke="#00cd00" points="107.99,-245.23 97.44,-246.15 106.26,-252.01 107.99,-245.23"/>
</g>
<!-- 25 -->
<g id="node26" class="node">
<title>25</title>
<ellipse fill="none" stroke="#00cd00" stroke-dasharray="5,2" cx="180.9" cy="-234" rx="50.89" ry="18"/>
<text text-anchor="middle" x="180.9" y="-230.3" font-family="Times,serif" font-size="14.00">utf8&#45;ranges</text>
</g>
<!-- 10&#45;&gt;25 -->
<g id="edge30" class="edge">
<title>10&#45;&gt;25</title>
<path fill="none" stroke="#00cd00" stroke-dasharray="5,2" d="M332.35,-292C301.65,-280.45 256.67,-263.52 223.71,-251.11"/>
<polygon fill="#00cd00" stroke="#00cd00" points="224.91,-247.83 214.32,-247.58 222.45,-254.38 224.91,-247.83"/>
</g>
<!-- 26 -->
<g id="node27" class="node">
<title>26</title>
<ellipse fill="none" stroke="black" cx="680.9" cy="-306" rx="49.29" ry="18"/>
<text text-anchor="middle" x="680.9" y="-302.3" font-family="Times,serif" font-size="14.00">memoffset</text>
</g>
<!-- 17&#45;&gt;26 -->
<g id="edge31" class="edge">
<title>17&#45;&gt;26</title>
<path fill="none" stroke="black" d="M678.64,-359.7C678.97,-351.98 679.36,-342.71 679.73,-334.11"/>
<polygon fill="black" stroke="black" points="683.23,-334.25 680.16,-324.1 676.24,-333.95 683.23,-334.25"/>
</g>
<!-- 27 -->
<g id="node28" class="node">
<title>27</title>
<ellipse fill="none" stroke="black" stroke-dasharray="5,2" cx="777.9" cy="-306" rx="29.5" ry="18"/>
<text text-anchor="middle" x="777.9" y="-302.3" font-family="Times,serif" font-size="14.00">serde</text>
</g>
<!-- 17&#45;&gt;27 -->
<g id="edge32" class="edge">
<title>17&#45;&gt;27</title>
<path fill="none" stroke="black" stroke-dasharray="1,5" d="M699.1,-362.15C714.1,-351.66 734.34,-337.49 750.55,-326.14"/>
<polygon fill="black" stroke="black" points="752.89,-328.77 759.08,-320.17 748.88,-323.04 752.89,-328.77"/>
</g>
<!-- 28 -->
<g id="node29" class="node">
<title>28</title>
<ellipse fill="none" stroke="black" stroke-dasharray="5,2" cx="896.9" cy="-306" rx="72.29" ry="18"/>
<text text-anchor="middle" x="896.9" y="-302.3" font-family="Times,serif" font-size="14.00">stable_deref_trait</text>
</g>
<!-- 17&#45;&gt;28 -->
<g id="edge33" class="edge">
<title>17&#45;&gt;28</title>
<path fill="none" stroke="black" stroke-dasharray="1,5" d="M710.61,-366.26C717,-364.17 723.66,-362.01 729.9,-360 768.07,-347.7 811.23,-334.01 844.1,-323.63"/>
<polygon fill="black" stroke="black" points="845.48,-326.86 853.96,-320.51 843.37,-320.19 845.48,-326.86"/>
</g>
<!-- 29 -->
<g id="node30" class="node">
<title>29</title>
<ellipse fill="none" stroke="#00cd00" cx="462.9" cy="-18" rx="52.79" ry="18"/>
<text text-anchor="middle" x="462.9" y="-14.3" font-family="Times,serif" font-size="14.00">unicode&#45;xid</text>
</g>
<!-- 18&#45;&gt;29 -->
<g id="edge34" class="edge">
<title>18&#45;&gt;29</title>
<path fill="none" stroke="#00cd00" d="M494.73,-72.05C489.78,-63.8 483.72,-53.7 478.22,-44.54"/>
<polygon fill="#00cd00" stroke="#00cd00" points="481.11,-42.56 472.97,-35.79 475.11,-46.16 481.11,-42.56"/>
</g>
<!-- 19&#45;&gt;18 -->
<g id="edge35" class="edge">
<title>19&#45;&gt;18</title>
<path fill="none" stroke="#00cd00" d="M514.75,-144.05C513.32,-136.35 511.59,-127.03 509.98,-118.36"/>
<polygon fill="#00cd00" stroke="#00cd00" points="513.37,-117.47 508.1,-108.28 506.49,-118.75 513.37,-117.47"/>
</g>
<!-- 20&#45;&gt;18 -->
<g id="edge36" class="edge">
<title>20&#45;&gt;18</title>
<path fill="none" stroke="#00cd00" d="M461.19,-215.91C463.94,-197.72 469.29,-168.27 477.9,-144 481.1,-134.95 485.55,-125.48 489.9,-117.09"/>
<polygon fill="#00cd00" stroke="#00cd00" points="493.05,-118.62 494.71,-108.16 486.89,-115.3 493.05,-118.62"/>
</g>
<!-- 20&#45;&gt;19 -->
<g id="edge37" class="edge">
<title>20&#45;&gt;19</title>
<path fill="none" stroke="#00cd00" stroke-dasharray="1,5" d="M471.7,-217.81C479.4,-208.67 489.36,-196.85 498.07,-186.52"/>
<polygon fill="#00cd00" stroke="#00cd00" points="500.94,-188.55 504.71,-178.64 495.59,-184.03 500.94,-188.55"/>
</g>
<!-- 20&#45;&gt;29 -->
<g id="edge38" class="edge">
<title>20&#45;&gt;29</title>
<path fill="none" stroke="#00cd00" d="M453.31,-215.92C444.43,-186.35 429.14,-123.81 439.9,-72 441.77,-62.96 445.27,-53.58 448.98,-45.26"/>
<polygon fill="#00cd00" stroke="#00cd00" points="452.22,-46.61 453.35,-36.07 445.9,-43.6 452.22,-46.61"/>
</g>
<!-- 26&#45;&gt;21 -->
<g id="edge39" class="edge">
<title>26&#45;&gt;21</title>
<path fill="none" stroke="#00cd00" d="M676.3,-288.05C674.18,-280.26 671.62,-270.82 669.25,-262.08"/>
<polygon fill="#00cd00" stroke="#00cd00" points="672.58,-261.01 666.58,-252.28 665.83,-262.84 672.58,-261.01"/>
</g>
</g>
</svg>
