<?xml version="1.0" encoding="UTF-8" standalone="no"?>
<!DOCTYPE svg PUBLIC "-//W3C//DTD SVG 1.1//EN"
 "http://www.w3.org/Graphics/SVG/1.1/DTD/svg11.dtd">
<!-- Generated by graphviz version 2.47.2 (20210527.0053)
 -->
<!-- Pages: 1 -->
<svg width="806pt" height="836pt"
 viewBox="0.00 0.00 806.39 836.00" xmlns="http://www.w3.org/2000/svg" xmlns:xlink="http://www.w3.org/1999/xlink">
<g id="graph0" class="graph" transform="scale(1 1) rotate(0) translate(4 832)">
<polygon fill="white" stroke="transparent" points="-4,4 -4,-832 802.39,-832 802.39,4 -4,4"/>
<!-- 0 -->
<g id="node1" class="node">
<title>0</title>
<polygon fill="none" stroke="black" points="101,-612 47,-612 47,-576 101,-576 101,-612"/>
<text text-anchor="middle" x="74" y="-590.3" font-family="Times,serif" font-size="14.00">ast</text>
</g>
<!-- 1 -->
<g id="node2" class="node">
<title>1</title>
<polygon fill="none" stroke="black" points="175,-540 121,-540 121,-504 175,-504 175,-540"/>
<text text-anchor="middle" x="148" y="-518.3" font-family="Times,serif" font-size="14.00">syntax</text>
</g>
<!-- 0&#45;&gt;1 -->
<g id="edge1" class="edge">
<title>0&#45;&gt;1</title>
<path fill="none" stroke="black" d="M92.29,-575.7C101.43,-567.05 112.64,-556.45 122.6,-547.03"/>
<polygon fill="black" stroke="black" points="125.05,-549.52 129.91,-540.1 120.24,-544.43 125.05,-549.52"/>
</g>
<!-- 2 -->
<g id="node3" class="node">
<title>2</title>
<polygon fill="none" stroke="black" points="307,-468 253,-468 253,-432 307,-432 307,-468"/>
<text text-anchor="middle" x="280" y="-446.3" font-family="Times,serif" font-size="14.00">lexer</text>
</g>
<!-- 1&#45;&gt;2 -->
<g id="edge2" class="edge">
<title>1&#45;&gt;2</title>
<path fill="none" stroke="black" d="M175.03,-506.67C194.83,-496.17 221.91,-481.8 243.61,-470.29"/>
<polygon fill="black" stroke="black" points="245.35,-473.33 252.55,-465.56 242.07,-467.15 245.35,-473.33"/>
</g>
<!-- 7 -->
<g id="node8" class="node">
<title>7</title>
<ellipse fill="none" stroke="#00cd00" cx="52" cy="-306" rx="51.99" ry="18"/>
<text text-anchor="middle" x="52" y="-302.3" font-family="Times,serif" font-size="14.00">num&#45;derive</text>
</g>
<!-- 1&#45;&gt;7 -->
<g id="edge3" class="edge">
<title>1&#45;&gt;7</title>
<path fill="none" stroke="#00cd00" d="M126.15,-503.94C115.34,-494.43 102.93,-481.75 95,-468 70.21,-425.03 59.34,-367.41 54.86,-334.03"/>
<polygon fill="#00cd00" stroke="#00cd00" points="58.33,-333.58 53.62,-324.09 51.38,-334.45 58.33,-333.58"/>
</g>
<!-- 8 -->
<g id="node9" class="node">
<title>8</title>
<ellipse fill="none" stroke="black" cx="151" cy="-450" rx="47.39" ry="18"/>
<text text-anchor="middle" x="151" y="-446.3" font-family="Times,serif" font-size="14.00">num&#45;traits</text>
</g>
<!-- 1&#45;&gt;8 -->
<g id="edge4" class="edge">
<title>1&#45;&gt;8</title>
<path fill="none" stroke="black" d="M148.74,-503.7C149.07,-495.98 149.46,-486.71 149.83,-478.11"/>
<polygon fill="black" stroke="black" points="153.33,-478.25 150.26,-468.1 146.34,-477.95 153.33,-478.25"/>
</g>
<!-- 9 -->
<g id="node10" class="node">
<title>9</title>
<ellipse fill="none" stroke="black" cx="423" cy="-450" rx="32.49" ry="18"/>
<text text-anchor="middle" x="423" y="-446.3" font-family="Times,serif" font-size="14.00">rowan</text>
</g>
<!-- 1&#45;&gt;9 -->
<g id="edge5" class="edge">
<title>1&#45;&gt;9</title>
<path fill="none" stroke="black" d="M175.25,-507.36C178.17,-506.13 181.12,-504.98 184,-504 251.62,-480.86 333.53,-465.25 381.77,-457.26"/>
<polygon fill="black" stroke="black" points="382.52,-460.69 391.83,-455.63 381.4,-453.78 382.52,-460.69"/>
</g>
<!-- 10 -->
<g id="node11" class="node">
<title>10</title>
<ellipse fill="none" stroke="black" cx="224" cy="-378" rx="29.8" ry="18"/>
<text text-anchor="middle" x="224" y="-374.3" font-family="Times,serif" font-size="14.00">logos</text>
</g>
<!-- 2&#45;&gt;10 -->
<g id="edge6" class="edge">
<title>2&#45;&gt;10</title>
<path fill="none" stroke="black" d="M266.15,-431.7C259.14,-422.93 250.52,-412.15 242.9,-402.63"/>
<polygon fill="black" stroke="black" points="245.51,-400.29 236.53,-394.67 240.05,-404.67 245.51,-400.29"/>
</g>
<!-- 11 -->
<g id="node12" class="node">
<title>11</title>
<ellipse fill="none" stroke="black" cx="312" cy="-378" rx="40.09" ry="18"/>
<text text-anchor="middle" x="312" y="-374.3" font-family="Times,serif" font-size="14.00">text&#45;size</text>
</g>
<!-- 2&#45;&gt;11 -->
<g id="edge7" class="edge">
<title>2&#45;&gt;11</title>
<path fill="none" stroke="black" d="M287.91,-431.7C291.55,-423.73 295.95,-414.1 299.99,-405.26"/>
<polygon fill="black" stroke="black" points="303.2,-406.65 304.18,-396.1 296.84,-403.74 303.2,-406.65"/>
</g>
<!-- 3 -->
<g id="node4" class="node">
<title>3</title>
<polygon fill="none" stroke="black" points="249,-756 195,-756 195,-720 249,-720 249,-756"/>
<text text-anchor="middle" x="222" y="-734.3" font-family="Times,serif" font-size="14.00">engine</text>
</g>
<!-- 4 -->
<g id="node5" class="node">
<title>4</title>
<polygon fill="none" stroke="black" points="223,-684 169,-684 169,-648 223,-648 223,-684"/>
<text text-anchor="middle" x="196" y="-662.3" font-family="Times,serif" font-size="14.00">hir</text>
</g>
<!-- 3&#45;&gt;4 -->
<g id="edge8" class="edge">
<title>3&#45;&gt;4</title>
<path fill="none" stroke="black" d="M215.57,-719.7C212.64,-711.81 209.11,-702.3 205.86,-693.55"/>
<polygon fill="black" stroke="black" points="209.11,-692.26 202.35,-684.1 202.55,-694.7 209.11,-692.26"/>
</g>
<!-- 4&#45;&gt;0 -->
<g id="edge9" class="edge">
<title>4&#45;&gt;0</title>
<path fill="none" stroke="black" d="M168.92,-649.46C151.55,-639.5 128.79,-626.44 109.91,-615.61"/>
<polygon fill="black" stroke="black" points="111.41,-612.43 101,-610.49 107.93,-618.5 111.41,-612.43"/>
</g>
<!-- 4&#45;&gt;1 -->
<g id="edge13" class="edge">
<title>4&#45;&gt;1</title>
<path fill="none" stroke="black" d="M174.29,-647.79C164.24,-638.41 153.35,-625.9 148,-612 140.38,-592.24 140.92,-568.12 143.06,-549.97"/>
<polygon fill="black" stroke="black" points="146.53,-550.45 144.46,-540.06 139.6,-549.47 146.53,-550.45"/>
</g>
<!-- 5 -->
<g id="node6" class="node">
<title>5</title>
<polygon fill="none" stroke="black" points="409,-612 355,-612 355,-576 409,-576 409,-612"/>
<text text-anchor="middle" x="382" y="-590.3" font-family="Times,serif" font-size="14.00">parser</text>
</g>
<!-- 4&#45;&gt;5 -->
<g id="edge11" class="edge">
<title>4&#45;&gt;5</title>
<path fill="none" stroke="blue" d="M223.13,-656.33C251.52,-647.07 297.51,-631.5 345.08,-612.19"/>
<polygon fill="blue" stroke="blue" points="346.68,-615.32 354.61,-608.28 344.03,-608.84 346.68,-615.32"/>
</g>
<!-- 12 -->
<g id="node13" class="node">
<title>12</title>
<ellipse fill="none" stroke="black" cx="196" cy="-594" rx="38.99" ry="18"/>
<text text-anchor="middle" x="196" y="-590.3" font-family="Times,serif" font-size="14.00">la&#45;arena</text>
</g>
<!-- 4&#45;&gt;12 -->
<g id="edge10" class="edge">
<title>4&#45;&gt;12</title>
<path fill="none" stroke="black" d="M196,-647.7C196,-639.98 196,-630.71 196,-622.11"/>
<polygon fill="black" stroke="black" points="199.5,-622.1 196,-612.1 192.5,-622.1 199.5,-622.1"/>
</g>
<!-- 13 -->
<g id="node14" class="node">
<title>13</title>
<ellipse fill="none" stroke="black" cx="295" cy="-594" rx="41.69" ry="18"/>
<text text-anchor="middle" x="295" y="-590.3" font-family="Times,serif" font-size="14.00">smol_str</text>
</g>
<!-- 4&#45;&gt;13 -->
<g id="edge12" class="edge">
<title>4&#45;&gt;13</title>
<path fill="none" stroke="black" d="M220.21,-647.88C233.99,-638.13 251.35,-625.86 265.87,-615.59"/>
<polygon fill="black" stroke="black" points="267.9,-618.44 274.05,-609.81 263.86,-612.73 267.9,-618.44"/>
</g>
<!-- 5&#45;&gt;1 -->
<g id="edge18" class="edge">
<title>5&#45;&gt;1</title>
<path fill="none" stroke="black" d="M354.74,-579.36C351.82,-578.13 348.87,-576.99 346,-576 279.22,-553.13 255.79,-562.95 185.07,-539.94"/>
<polygon fill="black" stroke="black" points="185.85,-536.51 175.25,-536.64 183.61,-543.14 185.85,-536.51"/>
</g>
<!-- 5&#45;&gt;2 -->
<g id="edge16" class="edge">
<title>5&#45;&gt;2</title>
<path fill="none" stroke="black" d="M369.69,-575.87C351.92,-551.14 318.96,-505.24 298.32,-476.51"/>
<polygon fill="black" stroke="black" points="301.02,-474.27 292.34,-468.19 295.33,-478.35 301.02,-474.27"/>
</g>
<!-- 5&#45;&gt;9 -->
<g id="edge17" class="edge">
<title>5&#45;&gt;9</title>
<path fill="none" stroke="black" d="M386.94,-575.87C393.96,-551.56 406.88,-506.82 415.2,-478.01"/>
<polygon fill="black" stroke="black" points="418.62,-478.77 418.03,-468.19 411.9,-476.83 418.62,-478.77"/>
</g>
<!-- 5&#45;&gt;11 -->
<g id="edge19" class="edge">
<title>5&#45;&gt;11</title>
<path fill="none" stroke="black" d="M376.39,-575.85C364.2,-538.58 335.22,-450 320.66,-405.49"/>
<polygon fill="black" stroke="black" points="323.97,-404.35 317.54,-395.94 317.32,-406.53 323.97,-404.35"/>
</g>
<!-- 14 -->
<g id="node15" class="node">
<title>14</title>
<ellipse fill="none" stroke="black" cx="245" cy="-522" rx="51.99" ry="18"/>
<text text-anchor="middle" x="245" y="-518.3" font-family="Times,serif" font-size="14.00">drop_bomb</text>
</g>
<!-- 5&#45;&gt;14 -->
<g id="edge14" class="edge">
<title>5&#45;&gt;14</title>
<path fill="none" stroke="black" d="M354.93,-579.17C334.09,-568.52 305.07,-553.69 282.07,-541.94"/>
<polygon fill="black" stroke="black" points="283.44,-538.71 272.95,-537.28 280.26,-544.95 283.44,-538.71"/>
</g>
<!-- 15 -->
<g id="node16" class="node">
<title>15</title>
<ellipse fill="none" stroke="blue" cx="520" cy="-522" rx="48.99" ry="18"/>
<text text-anchor="middle" x="520" y="-518.3" font-family="Times,serif" font-size="14.00">expect&#45;test</text>
</g>
<!-- 5&#45;&gt;15 -->
<g id="edge15" class="edge">
<title>5&#45;&gt;15</title>
<path fill="none" stroke="blue" d="M409.26,-579.17C430.39,-568.45 459.87,-553.5 483.11,-541.71"/>
<polygon fill="blue" stroke="blue" points="484.98,-544.69 492.32,-537.04 481.81,-538.44 484.98,-544.69"/>
</g>
<!-- 6 -->
<g id="node7" class="node">
<title>6</title>
<polygon fill="none" stroke="black" points="221,-828 167,-828 167,-792 221,-792 221,-828"/>
<text text-anchor="middle" x="194" y="-806.3" font-family="Times,serif" font-size="14.00">nakala</text>
</g>
<!-- 6&#45;&gt;0 -->
<g id="edge20" class="edge">
<title>6&#45;&gt;0</title>
<path fill="none" stroke="black" d="M184.38,-791.85C163.4,-754.44 113.43,-665.32 88.56,-620.98"/>
<polygon fill="black" stroke="black" points="91.6,-619.24 83.66,-612.23 85.5,-622.67 91.6,-619.24"/>
</g>
<!-- 6&#45;&gt;3 -->
<g id="edge21" class="edge">
<title>6&#45;&gt;3</title>
<path fill="none" stroke="black" d="M200.92,-791.7C204.07,-783.81 207.87,-774.3 211.38,-765.55"/>
<polygon fill="black" stroke="black" points="214.69,-766.69 215.15,-756.1 208.19,-764.09 214.69,-766.69"/>
</g>
<!-- 6&#45;&gt;4 -->
<g id="edge22" class="edge">
<title>6&#45;&gt;4</title>
<path fill="none" stroke="black" d="M190.75,-791.89C188.95,-781.54 186.9,-768.06 186,-756 184.8,-740.04 184.51,-735.93 186,-720 186.79,-711.48 188.3,-702.28 189.9,-693.99"/>
<polygon fill="black" stroke="black" points="193.35,-694.57 191.94,-684.07 186.49,-693.16 193.35,-694.57"/>
</g>
<!-- 6&#45;&gt;5 -->
<g id="edge23" class="edge">
<title>6&#45;&gt;5</title>
<path fill="none" stroke="black" d="M216.98,-792C229.67,-782.12 245.37,-769.08 258,-756 300.32,-712.15 341.99,-654.16 364.62,-621.09"/>
<polygon fill="black" stroke="black" points="367.76,-622.69 370.48,-612.45 361.96,-618.76 367.76,-622.69"/>
</g>
<!-- 16 -->
<g id="node17" class="node">
<title>16</title>
<ellipse fill="none" stroke="#00cd00" cx="118" cy="-90" rx="55.79" ry="18"/>
<text text-anchor="middle" x="118" y="-86.3" font-family="Times,serif" font-size="14.00">proc&#45;macro2</text>
</g>
<!-- 7&#45;&gt;16 -->
<g id="edge24" class="edge">
<title>7&#45;&gt;16</title>
<path fill="none" stroke="#00cd00" d="M36.73,-288.78C28.56,-278.95 19.31,-265.7 15,-252 10.19,-236.74 9.74,-231.11 15,-216 29.5,-174.3 64.96,-136.73 90.21,-113.91"/>
<polygon fill="#00cd00" stroke="#00cd00" points="92.82,-116.27 98.01,-107.04 88.2,-111.02 92.82,-116.27"/>
</g>
<!-- 17 -->
<g id="node18" class="node">
<title>17</title>
<ellipse fill="none" stroke="#00cd00" cx="131" cy="-162" rx="30.59" ry="18"/>
<text text-anchor="middle" x="131" y="-158.3" font-family="Times,serif" font-size="14.00">quote</text>
</g>
<!-- 7&#45;&gt;17 -->
<g id="edge25" class="edge">
<title>7&#45;&gt;17</title>
<path fill="none" stroke="#00cd00" d="M63.9,-288.15C70.94,-277.9 79.86,-264.43 87,-252 98.88,-231.32 110.77,-206.99 119.19,-189"/>
<polygon fill="#00cd00" stroke="#00cd00" points="122.46,-190.27 123.49,-179.72 116.11,-187.33 122.46,-190.27"/>
</g>
<!-- 18 -->
<g id="node19" class="node">
<title>18</title>
<ellipse fill="none" stroke="#00cd00" cx="51" cy="-234" rx="27" ry="18"/>
<text text-anchor="middle" x="51" y="-230.3" font-family="Times,serif" font-size="14.00">syn</text>
</g>
<!-- 7&#45;&gt;18 -->
<g id="edge26" class="edge">
<title>7&#45;&gt;18</title>
<path fill="none" stroke="#00cd00" d="M51.75,-287.7C51.64,-279.98 51.51,-270.71 51.38,-262.11"/>
<polygon fill="#00cd00" stroke="#00cd00" points="54.88,-262.05 51.24,-252.1 47.88,-262.15 54.88,-262.05"/>
</g>
<!-- 19 -->
<g id="node20" class="node">
<title>19</title>
<ellipse fill="none" stroke="#00cd00" cx="160" cy="-306" rx="37.09" ry="18"/>
<text text-anchor="middle" x="160" y="-302.3" font-family="Times,serif" font-size="14.00">autocfg</text>
</g>
<!-- 8&#45;&gt;19 -->
<g id="edge27" class="edge">
<title>8&#45;&gt;19</title>
<path fill="none" stroke="#00cd00" d="M152.08,-431.87C153.61,-407.67 156.43,-363.21 158.26,-334.39"/>
<polygon fill="#00cd00" stroke="#00cd00" points="161.77,-334.39 158.91,-324.19 154.78,-333.95 161.77,-334.39"/>
</g>
<!-- 9&#45;&gt;11 -->
<g id="edge32" class="edge">
<title>9&#45;&gt;11</title>
<path fill="none" stroke="black" d="M402.38,-436C385.71,-425.48 361.98,-410.52 343.01,-398.56"/>
<polygon fill="black" stroke="black" points="344.74,-395.51 334.41,-393.14 341,-401.43 344.74,-395.51"/>
</g>
<!-- 20 -->
<g id="node21" class="node">
<title>20</title>
<ellipse fill="none" stroke="black" cx="523" cy="-378" rx="41.69" ry="18"/>
<text text-anchor="middle" x="523" y="-374.3" font-family="Times,serif" font-size="14.00">countme</text>
</g>
<!-- 9&#45;&gt;20 -->
<g id="edge28" class="edge">
<title>9&#45;&gt;20</title>
<path fill="none" stroke="black" d="M442.28,-435.5C456.87,-425.29 477.17,-411.08 493.76,-399.46"/>
<polygon fill="black" stroke="black" points="495.86,-402.27 502.05,-393.66 491.85,-396.53 495.86,-402.27"/>
</g>
<!-- 21 -->
<g id="node22" class="node">
<title>21</title>
<ellipse fill="none" stroke="black" cx="749" cy="-378" rx="49.29" ry="18"/>
<text text-anchor="middle" x="749" y="-374.3" font-family="Times,serif" font-size="14.00">hashbrown</text>
</g>
<!-- 9&#45;&gt;21 -->
<g id="edge29" class="edge">
<title>9&#45;&gt;21</title>
<path fill="none" stroke="black" d="M447.55,-437.98C453.19,-435.75 459.24,-433.6 465,-432 562.55,-404.83 591.16,-418.06 690,-396 694.15,-395.07 698.44,-394.02 702.73,-392.91"/>
<polygon fill="black" stroke="black" points="703.93,-396.21 712.67,-390.22 702.1,-389.45 703.93,-396.21"/>
</g>
<!-- 22 -->
<g id="node23" class="node">
<title>22</title>
<ellipse fill="none" stroke="black" cx="632" cy="-378" rx="49.29" ry="18"/>
<text text-anchor="middle" x="632" y="-374.3" font-family="Times,serif" font-size="14.00">memoffset</text>
</g>
<!-- 9&#45;&gt;22 -->
<g id="edge30" class="edge">
<title>9&#45;&gt;22</title>
<path fill="none" stroke="black" d="M448.19,-438.43C453.7,-436.23 459.52,-433.97 465,-432 505.1,-417.54 551.36,-403.03 585,-392.85"/>
<polygon fill="black" stroke="black" points="586.01,-396.21 594.57,-389.97 583.99,-389.5 586.01,-396.21"/>
</g>
<!-- 23 -->
<g id="node24" class="node">
<title>23</title>
<ellipse fill="none" stroke="black" cx="417" cy="-378" rx="46.59" ry="18"/>
<text text-anchor="middle" x="417" y="-374.3" font-family="Times,serif" font-size="14.00">rustc&#45;hash</text>
</g>
<!-- 9&#45;&gt;23 -->
<g id="edge31" class="edge">
<title>9&#45;&gt;23</title>
<path fill="none" stroke="black" d="M421.51,-431.7C420.85,-423.98 420.06,-414.71 419.32,-406.11"/>
<polygon fill="black" stroke="black" points="422.8,-405.77 418.46,-396.1 415.83,-406.37 422.8,-405.77"/>
</g>
<!-- 24 -->
<g id="node25" class="node">
<title>24</title>
<ellipse fill="none" stroke="#00cd00" stroke-dasharray="5,2" cx="270" cy="-306" rx="54.69" ry="18"/>
<text text-anchor="middle" x="270" y="-302.3" font-family="Times,serif" font-size="14.00">logos&#45;derive</text>
</g>
<!-- 10&#45;&gt;24 -->
<g id="edge33" class="edge">
<title>10&#45;&gt;24</title>
<path fill="none" stroke="#00cd00" stroke-dasharray="1,5" d="M234.43,-361.12C240.03,-352.59 247.07,-341.89 253.4,-332.25"/>
<polygon fill="#00cd00" stroke="#00cd00" points="256.39,-334.08 258.96,-323.8 250.54,-330.23 256.39,-334.08"/>
</g>
<!-- 25 -->
<g id="node26" class="node">
<title>25</title>
<ellipse fill="none" stroke="blue" cx="520" cy="-450" rx="46.29" ry="18"/>
<text text-anchor="middle" x="520" y="-446.3" font-family="Times,serif" font-size="14.00">dissimilar</text>
</g>
<!-- 15&#45;&gt;25 -->
<g id="edge34" class="edge">
<title>15&#45;&gt;25</title>
<path fill="none" stroke="blue" d="M520,-503.7C520,-495.98 520,-486.71 520,-478.11"/>
<polygon fill="blue" stroke="blue" points="523.5,-478.1 520,-468.1 516.5,-478.1 523.5,-478.1"/>
</g>
<!-- 26 -->
<g id="node27" class="node">
<title>26</title>
<ellipse fill="none" stroke="blue" cx="628" cy="-450" rx="44.39" ry="18"/>
<text text-anchor="middle" x="628" y="-446.3" font-family="Times,serif" font-size="14.00">once_cell</text>
</g>
<!-- 15&#45;&gt;26 -->
<g id="edge35" class="edge">
<title>15&#45;&gt;26</title>
<path fill="none" stroke="blue" d="M543.16,-505.98C558.79,-495.86 579.59,-482.38 596.68,-471.3"/>
<polygon fill="blue" stroke="blue" points="598.75,-474.13 605.24,-465.75 594.94,-468.25 598.75,-474.13"/>
</g>
<!-- 27 -->
<g id="node28" class="node">
<title>27</title>
<ellipse fill="none" stroke="#00cd00" cx="76" cy="-18" rx="52.79" ry="18"/>
<text text-anchor="middle" x="76" y="-14.3" font-family="Times,serif" font-size="14.00">unicode&#45;xid</text>
</g>
<!-- 16&#45;&gt;27 -->
<g id="edge36" class="edge">
<title>16&#45;&gt;27</title>
<path fill="none" stroke="#00cd00" d="M107.83,-72.05C102.88,-63.8 96.82,-53.7 91.32,-44.54"/>
<polygon fill="#00cd00" stroke="#00cd00" points="94.22,-42.56 86.07,-35.79 88.21,-46.16 94.22,-42.56"/>
</g>
<!-- 17&#45;&gt;16 -->
<g id="edge37" class="edge">
<title>17&#45;&gt;16</title>
<path fill="none" stroke="#00cd00" d="M127.85,-144.05C126.42,-136.35 124.69,-127.03 123.08,-118.36"/>
<polygon fill="#00cd00" stroke="#00cd00" points="126.47,-117.47 121.2,-108.28 119.59,-118.75 126.47,-117.47"/>
</g>
<!-- 18&#45;&gt;16 -->
<g id="edge38" class="edge">
<title>18&#45;&gt;16</title>
<path fill="none" stroke="#00cd00" d="M58.13,-216.49C65.95,-198.53 78.99,-169.05 91,-144 95.21,-135.2 99.99,-125.68 104.34,-117.17"/>
<polygon fill="#00cd00" stroke="#00cd00" points="107.56,-118.57 109.03,-108.08 101.34,-115.37 107.56,-118.57"/>
</g>
<!-- 18&#45;&gt;17 -->
<g id="edge39" class="edge">
<title>18&#45;&gt;17</title>
<path fill="none" stroke="#00cd00" stroke-dasharray="1,5" d="M66.8,-219.17C78.26,-209.14 93.98,-195.39 106.98,-184.01"/>
<polygon fill="#00cd00" stroke="#00cd00" points="109.45,-186.5 114.67,-177.28 104.84,-181.23 109.45,-186.5"/>
</g>
<!-- 18&#45;&gt;27 -->
<g id="edge40" class="edge">
<title>18&#45;&gt;27</title>
<path fill="none" stroke="#00cd00" d="M49.01,-215.83C46.07,-186.13 41.99,-123.39 53,-72 54.93,-62.98 58.44,-53.59 62.15,-45.28"/>
<polygon fill="#00cd00" stroke="#00cd00" points="65.39,-46.62 66.51,-36.08 59.06,-43.62 65.39,-46.62"/>
</g>
<!-- 22&#45;&gt;19 -->
<g id="edge41" class="edge">
<title>22&#45;&gt;19</title>
<path fill="none" stroke="#00cd00" d="M596.36,-365.42C589.03,-363.36 581.31,-361.42 574,-360 412.66,-328.75 366.16,-360.79 206,-324 203.02,-323.32 199.98,-322.49 196.94,-321.58"/>
<polygon fill="#00cd00" stroke="#00cd00" points="197.97,-318.23 187.38,-318.42 195.78,-324.88 197.97,-318.23"/>
</g>
<!-- 24&#45;&gt;16 -->
<g id="edge44" class="edge">
<title>24&#45;&gt;16</title>
<path fill="none" stroke="#00cd00" stroke-dasharray="5,2" d="M319.3,-298.17C379.46,-287.64 469.4,-263.49 437,-216 380.09,-132.58 258.37,-104.83 182.83,-95.6"/>
<polygon fill="#00cd00" stroke="#00cd00" points="182.82,-92.08 172.49,-94.42 182.02,-99.03 182.82,-92.08"/>
</g>
<!-- 24&#45;&gt;17 -->
<g id="edge45" class="edge">
<title>24&#45;&gt;17</title>
<path fill="none" stroke="#00cd00" stroke-dasharray="5,2" d="M230.26,-293.55C207.82,-285.26 180.79,-271.96 163,-252 147.51,-234.63 139.36,-209.2 135.17,-189.98"/>
<polygon fill="#00cd00" stroke="#00cd00" points="138.58,-189.17 133.23,-180.02 131.71,-190.5 138.58,-189.17"/>
</g>
<!-- 24&#45;&gt;18 -->
<g id="edge47" class="edge">
<title>24&#45;&gt;18</title>
<path fill="none" stroke="#00cd00" stroke-dasharray="5,2" d="M231.85,-292.81C190.25,-279.51 124.31,-258.44 84.6,-245.74"/>
<polygon fill="#00cd00" stroke="#00cd00" points="85.45,-242.34 74.86,-242.63 83.32,-249.01 85.45,-242.34"/>
</g>
<!-- 28 -->
<g id="node29" class="node">
<title>28</title>
<ellipse fill="none" stroke="#00cd00" stroke-dasharray="5,2" cx="199" cy="-234" rx="27" ry="18"/>
<text text-anchor="middle" x="199" y="-230.3" font-family="Times,serif" font-size="14.00">beef</text>
</g>
<!-- 24&#45;&gt;28 -->
<g id="edge42" class="edge">
<title>24&#45;&gt;28</title>
<path fill="none" stroke="#00cd00" stroke-dasharray="5,2" d="M253.53,-288.76C243.77,-279.14 231.29,-266.84 220.73,-256.43"/>
<polygon fill="#00cd00" stroke="#00cd00" points="223.03,-253.78 213.45,-249.25 218.11,-258.76 223.03,-253.78"/>
</g>
<!-- 29 -->
<g id="node30" class="node">
<title>29</title>
<ellipse fill="none" stroke="#00cd00" stroke-dasharray="5,2" cx="271" cy="-234" rx="27" ry="18"/>
<text text-anchor="middle" x="271" y="-230.3" font-family="Times,serif" font-size="14.00">fnv</text>
</g>
<!-- 24&#45;&gt;29 -->
<g id="edge43" class="edge">
<title>24&#45;&gt;29</title>
<path fill="none" stroke="#00cd00" stroke-dasharray="5,2" d="M270.24,-287.7C270.35,-279.98 270.49,-270.71 270.61,-262.11"/>
<polygon fill="#00cd00" stroke="#00cd00" points="274.11,-262.15 270.75,-252.1 267.11,-262.05 274.11,-262.15"/>
</g>
<!-- 30 -->
<g id="node31" class="node">
<title>30</title>
<ellipse fill="none" stroke="#00cd00" stroke-dasharray="5,2" cx="372" cy="-234" rx="55.79" ry="18"/>
<text text-anchor="middle" x="372" y="-230.3" font-family="Times,serif" font-size="14.00">regex&#45;syntax</text>
</g>
<!-- 24&#45;&gt;30 -->
<g id="edge46" class="edge">
<title>24&#45;&gt;30</title>
<path fill="none" stroke="#00cd00" stroke-dasharray="5,2" d="M292.63,-289.46C306.89,-279.68 325.5,-266.91 341.1,-256.2"/>
<polygon fill="#00cd00" stroke="#00cd00" points="343.16,-259.04 349.42,-250.49 339.2,-253.26 343.16,-259.04"/>
</g>
<!-- 31 -->
<g id="node32" class="node">
<title>31</title>
<ellipse fill="none" stroke="#00cd00" stroke-dasharray="5,2" cx="535" cy="-234" rx="50.89" ry="18"/>
<text text-anchor="middle" x="535" y="-230.3" font-family="Times,serif" font-size="14.00">utf8&#45;ranges</text>
</g>
<!-- 24&#45;&gt;31 -->
<g id="edge48" class="edge">
<title>24&#45;&gt;31</title>
<path fill="none" stroke="#00cd00" stroke-dasharray="5,2" d="M311.11,-294.14C358.27,-281.68 435.54,-261.27 485.83,-247.99"/>
<polygon fill="#00cd00" stroke="#00cd00" points="486.74,-251.37 495.52,-245.43 484.95,-244.6 486.74,-251.37"/>
</g>
</g>
</svg>
